<svg xmlns="http://www.w3.org/2000/svg" id="bluesky" viewBox="0 0 24 24"><path d="M 6.3352667,4.3805517 C 8.6282167,6.10196 11.09455,9.5922517 12.000058,11.465343 12.905642,9.5923851 15.371833,6.1019267 17.66485,4.3805517 19.319325,3.13846 22,2.1773934 22,5.2355517 c 0,0.61075 -0.350167,5.1306583 -0.55555,5.8644503 -0.713892,2.551149 -3.315292,3.201842 -5.629275,2.808016 4.0448,0.688408 5.073767,2.968667 2.8516,5.248933 C 14.446458,23.487618 12.60095,18.070368 12.12785,16.682277 12.041158,16.427802 12.0006,16.30876 12,16.409985 c -6e-4,-0.101225 -0.04116,0.01783 -0.12785,0.272292 -0.472892,1.388091 -2.3183667,6.805474 -6.538925,2.474674 -2.2222,-2.280266 -1.193275,-4.560666 2.8516,-5.248933 C 5.8707667,14.301844 3.2693333,13.651151 2.55555,11.100002 2.3501667,10.366143 2,5.8462351 2,5.2355517 2,2.1773934 4.6807417,3.13846 6.33515,4.3805517 Z" /></svg>