<svg xmlns="http://www.w3.org/2000/svg" id="dsm" viewBox="0 0 24 24"><path d="M 4.5 2 C 3.115 2 2 3.115 2 4.5 L 2 19.5 C 2 20.885 3.115 22 4.5 22 L 19.5 22 C 20.885 22 22 20.885 22 19.5 L 22 4.5 C 22 3.115 20.885 2 19.5 2 L 4.5 2 z M 3.3164062 8.8417969 L 5.2363281 8.8417969 C 8.1957844 8.8417969 8.3164062 8.9683984 8.3164062 12.066406 C 8.3164063 14.328804 8.2296129 14.655917 7.5214844 15.074219 C 7.2290449 15.246968 6.777948 15.289062 5.2363281 15.289062 L 3.3164062 15.289062 L 3.3164062 13.380859 L 3.3164062 11.474609 L 3.9746094 11.474609 L 4.6308594 11.474609 L 4.6308594 12.724609 L 4.6308594 13.974609 L 5.6582031 13.974609 C 6.2810101 13.974609 6.7459804 13.912223 6.8417969 13.816406 C 7.060075 13.598128 7.060075 10.534684 6.8417969 10.316406 C 6.7354373 10.210047 6.1345029 10.158203 5 10.158203 L 3.3164062 10.158203 L 3.3164062 9.5 L 3.3164062 8.8417969 z M 12.822266 8.8417969 L 14.5 8.8417969 L 14.5 9.5 L 14.5 10.158203 L 12.927734 10.158203 C 11.452965 10.158203 11.344567 10.176735 11.152344 10.451172 C 10.888747 10.827508 10.89416 10.89416 11.210938 11.210938 C 11.420524 11.420524 11.649579 11.474609 12.335938 11.474609 C 12.856638 11.474609 13.353728 11.554624 13.591797 11.677734 C 14.820745 12.313248 14.79418 14.266853 13.546875 15.027344 C 13.176066 15.253429 12.882521 15.288668 11.375 15.289062 L 9.6308594 15.289062 L 9.6308594 14.630859 L 9.6308594 13.974609 L 11.154297 13.974609 C 12.819638 13.974609 13.183594 13.866405 13.183594 13.380859 C 13.183594 12.944488 12.830891 12.789062 11.841797 12.789062 C 10.329532 12.789063 9.5667472 12.059262 9.6679688 10.710938 C 9.7286441 9.9027038 10.039459 9.4056975 10.693359 9.0722656 C 11.052961 8.8889001 11.48513 8.8419548 12.822266 8.8417969 z M 15.816406 8.8417969 L 16.505859 8.84375 L 17.197266 8.8457031 L 17.708984 10.027344 C 17.989937 10.677561 18.259751 11.210938 18.310547 11.210938 C 18.361342 11.210937 18.657276 10.676706 18.966797 10.025391 L 19.529297 8.8417969 L 20.171875 8.8417969 L 20.816406 8.8417969 L 20.816406 12.066406 L 20.816406 15.289062 L 20.158203 15.289062 L 19.5 15.289062 L 19.488281 13.414062 L 19.476562 11.539062 L 18.929688 12.6875 C 18.628623 13.319431 18.35259 13.837891 18.316406 13.837891 C 18.280222 13.837891 18.004189 13.319431 17.703125 12.6875 L 17.154297 11.539062 L 17.142578 13.414062 L 17.130859 15.289062 L 16.474609 15.289062 L 15.816406 15.289062 L 15.816406 12.066406 L 15.816406 8.8417969 z" /></svg>