<svg xmlns="http://www.w3.org/2000/svg" id="matrix-protocol" viewBox="0 0 24 24"><path d="M 3.2929688,1.9999999 V 21.998047 H 5.1933595 V 21.541015 H 3.8242188 V 2.4804687 L 5.1875001,2.4570312 V 1.9999999 Z M 18.80664,2.001953 v 0.4570313 h 1.369141 V 21.519531 l -1.369141,0.02344 V 22 h 1.900391 V 2.001953 Z m -8.220703,6.3222661 c -0.462442,0 -0.8816858,0.100884 -1.2441398,0.3027339 -0.373079,0.212473 -0.691046,0.504966 -0.931641,0.857422 h -0.02734 V 8.521484 l -1.8554684,0.01172 v 7.123047 h 1.9570314 v -4.136719 c 0,-0.351206 0.04978,-0.633386 0.150391,-0.849609 0.101237,-0.215598 0.222752,-0.381108 0.365234,-0.496094 0.129359,-0.107486 0.280176,-0.1878179 0.441406,-0.2343749 0.118735,-0.03624 0.2415,-0.05731 0.365234,-0.0625 0.3149608,0 0.5497078,0.05322 0.7109378,0.1582029 0.15623,0.100613 0.276258,0.248772 0.34375,0.421875 0.07068,0.183102 0.112016,0.37604 0.119141,0.572266 0.0087,0.204349 0.01172,0.413776 0.01172,0.625 v 3.998046 h 1.957032 v -3.966796 c 0,-0.220598 0.01633,-0.439402 0.04883,-0.65625 0.0275,-0.2031 0.09204,-0.400726 0.191406,-0.580078 0.09624,-0.169979 0.230412,-0.307826 0.400391,-0.414063 0.171228,-0.104987 0.393003,-0.158203 0.667969,-0.158203 0.277465,0 0.495645,0.04743 0.65625,0.138672 0.15498,0.08624 0.282119,0.216192 0.365234,0.373047 0.08686,0.171854 0.13733,0.35893 0.15039,0.550781 0.01812,0.210599 0.02734,0.434483 0.02734,0.673828 v 4.03711 h 1.957031 v -4.767579 c 0,-0.462442 -0.06525,-0.855431 -0.193359,-1.18164 C 17.091973,9.373714 16.912319,9.110054 16.683598,8.908204 16.454876,8.70573 16.180589,8.559286 15.859379,8.466798 15.540669,8.375558 15.192613,8.328126 14.81641,8.328126 c -0.493688,0 -0.924654,0.12003 -1.287109,0.359375 C 13.164346,8.924346 12.877243,9.199259 12.666019,9.51172 12.472294,9.06865 12.188238,8.7622441 11.81641,8.5878911 11.447706,8.4129131 11.035885,8.32422 10.585941,8.32422 Z" /></svg>