<svg xmlns="http://www.w3.org/2000/svg" id="proxmox" viewBox="0 0 24 24"><path d="M 6.1079719,3.5201067 C 5.1998809,3.9825895 5.1998809,4.0538369 6.0492219,5.0044266 10.759047,10.248606 11.885881,11.48856 11.970252,11.48856 12.087748,11.50169 18.613755,4.3694502 18.685628,4.1550831 18.715004,4.0963353 18.513136,3.8944678 18.252521,3.7088497 17.907534,3.4482344 17.533173,3.3476131 16.826949,3.3182392 15.501998,3.2338674 15.04014,3.5201067 13.395826,5.3656631 c -0.748722,0.8330943 -1.383698,1.5268183 -1.383698,1.5268183 -0.01313,0 -0.631227,-0.67685 -1.367449,-1.4974443 C 9.9084559,4.5744426 9.0597379,3.7513481 8.7728729,3.5919791 8.1085229,3.217618 6.7548229,3.1882441 6.1035969,3.5201071 Z M 3.0805847,5.639403 C 2.3743609,5.9131428 1.9999998,6.1731334 1.9999998,6.3718754 c 0,0.100622 1.1099588,1.399948 2.4511589,2.884268 1.3543247,1.4843196 2.4480342,2.7242736 2.4480342,2.7505226 0,0.02937 -1.1099589,1.269328 -2.4511591,2.753648 -1.3543246,1.497444 -2.4349095,2.80927 -2.4186601,2.923016 0.071872,0.39061 1.2530785,0.881842 2.1155464,0.881842 1.399948,-0.01625 1.7155613,-0.260615 4.6710768,-3.50237 1.4843191,-1.627439 2.6917751,-3.011138 2.6917751,-3.056761 0,-0.05562 -1.194331,-1.409323 -2.6624011,-3.0242626 C 6.9279419,6.8918564 5.9904765,5.9543913 5.5448681,5.7525238 4.8680182,5.4206611 3.7743089,5.3650382 3.0805847,5.638778 Z M 18.470638,5.7400242 c -0.419985,0.214992 -1.471196,1.2530782 -3.287378,3.2423792 -1.46807,1.6143146 -2.666151,2.9686396 -2.666151,3.0242626 0,0.05875 1.211205,1.428697 2.695525,3.056761 2.95239,3.24238 3.271128,3.486121 4.667951,3.50237 0.865593,0 2.047424,-0.491232 2.119297,-0.881842 0.01312,-0.129995 -1.067461,-1.425572 -2.421785,-2.909892 -1.338076,-1.481195 -2.448034,-2.737398 -2.448034,-2.766772 0,-0.02625 1.109958,-1.282452 2.448034,-2.7667716 1.354324,-1.481195 2.434909,-2.779897 2.421785,-2.893643 -0.07187,-0.3743608 -1.139333,-0.8074697 -2.060549,-0.8655926 -0.66435,-0.029374 -1.009337,0.029374 -1.46807,0.2606154 z M 8.6272539,16.143387 c -1.786809,1.975552 -3.2548794,3.64549 -3.2842533,3.717362 -0.029374,0.05875 0.1724936,0.260615 0.4331089,0.446233 0.3449874,0.260616 0.7193484,0.361237 1.4255724,0.390611 1.311826,0.08437 1.799933,-0.218117 3.4567461,-2.089922 0.722473,-0.80747 1.3412,-1.48432 1.354325,-1.48432 0.01625,0 0.634976,0.67685 1.370574,1.497444 1.686187,1.87493 2.131796,2.14867 3.443622,2.076798 0.706224,-0.02937 1.080585,-0.129995 1.425572,-0.390611 0.260615,-0.185618 0.462483,-0.387485 0.433109,-0.446233 -0.07187,-0.214992 -6.60163,-7.349727 -6.715376,-7.333477 -0.05875,0 -1.556192,1.627439 -3.3430001,3.616115 z" /></svg>