<svg xmlns="http://www.w3.org/2000/svg" id="vim" viewBox="0 0 24 24"><path d="M 22,11.988333 H 21.9775 L 18.379167,8.39 21.965,4.7116667 V 3.2175 l -0.540833,-0.54 H 14.5925 l -0.55,0.5041667 V 4.0525 l -2.03,-2.03 V 2 L 12,2.0116667 11.988333,2 v 0.0225 l -1.075,1.0758333 L 10.465,2.6491667 H 3.6958333 L 3.1641667,3.2258333 V 4.7966667 L 3.6775,5.31 h 0.6 v 4.425 l -2.255,2.254167 H 2 L 2.0116667,12 2,12.011667 h 0.0225 l 2.255,2.255 v 5.389166 l 0.7558333,0.435834 h 1.935 L 8.5158333,18.505 11.9875,21.976667 V 22 L 12,21.988333 12.011667,22 v -0.02333 l 2.091666,-2.090834 H 14.5075 c 0.09167,0 0.175,-0.05833 0.208333,-0.15 l 0.122234,-0.355 c 0.02333,-0.06943 0.01,-0.144433 -0.03056,-0.2 l 1.218334,-1.218333 -0.51,1.635 c -0.0361,0.116667 0.03056,0.241667 0.147233,0.277767 0.02083,0.0067 0.04443,0.01 0.0639,0.01 h 1.52 c 0.0889,-8.34e-4 0.166667,-0.05277 0.202767,-0.1361 l 0.1389,-0.328334 c 0.02083,-0.05277 0.02,-0.1139 -0.0033,-0.169433 -0.0225,-0.05277 -0.06667,-0.09723 -0.122233,-0.119433 -0.02417,-0.01 -0.05277,-0.01583 -0.08057,-0.01667 h -0.0639 l 0.7,-2.203333 h 1.026667 l -0.846667,2.684166 c -0.0361,0.116667 0.03056,0.241667 0.147234,0.277767 0.02083,0.0067 0.04443,0.01 0.06667,0.01 h 1.668334 c 0.09167,0 0.172233,-0.05557 0.205566,-0.141667 l 0.1361,-0.356666 c 0.04167,-0.1139 -0.0175,-0.241667 -0.130566,-0.284167 -0.02417,-0.0092 -0.05,-0.01417 -0.075,-0.01417 H 20.0975 L 21.04,16.026389 c 0.0225,-0.06943 0.01,-0.144433 -0.03333,-0.2 l -0.3125,-0.42 -0.0025,-0.0042 c -0.04167,-0.05277 -0.105556,-0.08611 -0.175,-0.08611 H 19.32 c -0.05833,0 -0.116667,0.025 -0.158333,0.06667 l -0.333334,0.365833 h -0.52 l -0.0361,-0.0389 3.704167,-3.704167 H 22 L 21.988333,12 Z m -11.801667,7.6275 1.315834,-3.7575 h -0.4175 L 11.3439,15.605567 h 1.3825 L 11.4239,19.4014 h 0.519167 L 11.8764,19.6153 Z M 13.2775,13.3525 l 0.125,0.125 -0.225,0.768333 -0.1889,0.1889 h -0.805267 l -0.15,-0.15 0.258334,-0.725833 0.2389,-0.205567 z m -6.6191667,6.005 h -1.4275 L 5.0114,19.2325 V 4.5758333 h -1.03 L 3.8980667,4.4925 v -0.98 L 4.0175,3.3847333 H 10.16 L 10.337767,3.5625 V 4.4858333 L 10.218333,4.6302777 H 9.3191667 V 11.870278 L 16.658333,4.6302777 H 14.92 L 14.772767,4.474711 V 3.5055443 l 0.1,-0.091667 h 6.241666 l 0.1111,0.1111 v 0.891689 l -8.4125,8.6275007 H 12.5022 c -0.0125,-8.34e-4 -0.02333,0 -0.0361,8.33e-4 l -0.01667,0.0025 c -0.0389,0.0083 -0.07223,0.025 -0.1,0.05 l -0.285833,0.247233 -0.0033,0.0025 c -0.0275,0.02583 -0.05,0.05833 -0.0611,0.09167 L 11.751963,14.13057 Z M 18.965,16.064167 l 0.395,-0.4325 h 1.111667 L 20.73,15.9775 19.675833,19.4 h 0.410834 L 20.02,19.575 H 18.533333 L 19.47,16.605 h -1.679167 l -0.8975,2.825833 h 0.353334 l -0.0611,0.144434 h -1.3375 l 0.9225,-2.956667 H 15.0239 l -0.885,2.7825 h 0.363333 l -0.0611,0.175 h -1.3828 L 14.32,15.859433 h -0.488333 l 0.075,-0.225 h 1.375 l 0.4325,0.4475 h 0.755 l 0.409166,-0.461666 H 17.7625 L 18.17,16.0661 Z" /></svg>